<svg xmlns="http://www.w3.org/2000/svg" xmlns:xlink="http://www.w3.org/1999/xlink" xmlns:lucid="lucid" width="3050" height="3964"><g transform="translate(-3835 -1385)" lucid:page-tab-id="0_0"><path d="M3840 1398a8 8 0 0 1 8-8h3024a8 8 0 0 1 8 8v886a8 8 0 0 1-8 8H3848a8 8 0 0 1-8-8z" stroke="#3a414a" stroke-width="10" fill-opacity="0"/><path d="M4060 1982.12a8 8 0 0 1 8-8h425.65a8 8 0 0 1 8 8v197.74a8 8 0 0 1-8 8H4068a8 8 0 0 1-8-8z" stroke="#3a414a" fill="#28ceff"/><use xlink:href="#a" transform="matrix(1,0,0,1,4071.9999999999995,1986.1171502246418) translate(64.84635416666666 114.40104166666667)"/><path d="M5550.58 1928.95a8 8 0 0 1 8-8h478.1a8 8 0 0 1 8 8v202.62a8 8 0 0 1-8 8h-478.1a8 8 0 0 1-8-8z" stroke="#3a414a" fill="#fff7a1"/><use xlink:href="#b" transform="matrix(1,0,0,1,5562.58064516129,1932.9535430725778) translate(68.15625 116.90104166666667)"/><path d="M4915.7 1648a8 8 0 0 1 8-8h478.1a8 8 0 0 1 8 8v202.62a8 8 0 0 1-8 8h-478.1a8 8 0 0 1-8-8z" stroke="#3a414a" fill="#fff7a1"/><use xlink:href="#c" transform="matrix(1,0,0,1,4927.703703703704,1652) translate(69.53645833333334 116.90104166666667)"/><path d="M4060 1655.45a8 8 0 0 1 8-8h435.37a8 8 0 0 1 8 8v202.62a8 8 0 0 1-8 8H4068a8 8 0 0 1-8-8z" stroke="#3a414a" fill="#28ceff"/><use xlink:href="#d" transform="matrix(1,0,0,1,4072.0000000000005,1659.4532642867368) translate(68.7265625 116.90104166666667)"/><use xlink:href="#e" transform="matrix(1,0,0,1,4072.0000000000005,1659.4532642867368) translate(214.66406250000003 116.90104166666667)"/><path d="M6173.84 1928.95a8 8 0 0 1 8-8h478.1a8 8 0 0 1 8 8v187.7a8 8 0 0 1-8 8h-478.1a8 8 0 0 1-8-8z" stroke="#3a414a" fill="#ffa0a0"/><use xlink:href="#f" transform="matrix(1,0,0,1,6185.835125448029,1932.953543072578) translate(71.6328125 109.40104166666667)"/><use xlink:href="#g" transform="matrix(1,0,0,1,6185.835125448029,1932.953543072578) translate(219.15885416666669 109.40104166666667)"/><path d="M4502.65 2081h523.45a.02.02 0 0 0 .02-.03.02.02 0 0 1 .02-.02h507.56" stroke="#3a414a" fill="none"/><path d="M4502.67 2081.47h-.52v-.95h.52z" stroke="#3a414a" stroke-width=".05" fill="#3a414a"/><path d="M5548.46 2080.95l-14.26 4.64v-9.28z" stroke="#3a414a" fill="#3a414a"/><path d="M4512.37 1756.76H4898.83" stroke="#3a414a" fill="none"/><path d="M4512.4 1757.24h-.53v-.95h.52z" stroke="#3a414a" stroke-width=".05" fill="#3a414a"/><path d="M4913.6 1756.76l-14.28 4.63v-9.28z" stroke="#3a414a" fill="#3a414a"/><path d="M5410.8 1749.3h57.4a12 12 0 0 1 12 12v249.5a12 12 0 0 0 12 12h41.5" stroke="#3a414a" fill="none"/><path d="M5410.82 1749.78h-.5v-.95h.5z" stroke="#3a414a" stroke-width=".05" fill="#3a414a"/><path d="M5548.46 2022.8l-14.26 4.65v-9.27z" stroke="#3a414a" fill="#3a414a"/><path d="M6045.68 2030.26h63.57l.02-.02h47.68" stroke="#3a414a" fill="none"/><path d="M6045.7 2030.74h-.52v-.95h.52z" stroke="#3a414a" stroke-width=".05" fill="#3a414a"/><path d="M6171.72 2030.24l-14.27 4.64v-9.27z" stroke="#3a414a" fill="#3a414a"/><path d="M3980 1424.87a8 8 0 0 1 8-8h2778.48a8 8 0 0 1 8 8v133.18a8 8 0 0 1-8 8H3988a8 8 0 0 1-8-8z" fill="none"/><use xlink:href="#h" transform="matrix(1,0,0,1,3980,1416.8648648648648) translate(854.9055989583334 99.25130208333334)"/><use xlink:href="#i" transform="matrix(1,0,0,1,3980,1416.8648648648648) translate(1073.818359375 99.25130208333334)"/><use xlink:href="#j" transform="matrix(1,0,0,1,3980,1416.8648648648648) translate(1449.990234375 99.25130208333334)"/><use xlink:href="#k" transform="matrix(1,0,0,1,3980,1416.8648648648648) translate(1530.4264322916665 99.25130208333334)"/><use xlink:href="#l" transform="matrix(1,0,0,1,3980,1416.8648648648648) translate(1714.833984375 99.25130208333334)"/><path d="M3840 2348a8 8 0 0 1 8-8h3024a8 8 0 0 1 8 8v984a8 8 0 0 1-8 8H3848a8 8 0 0 1-8-8z" stroke="#3a414a" stroke-width="10" fill-opacity="0"/><path d="M4200 2747.8a8 8 0 0 1 8-8h484a8 8 0 0 1 8 8v531.75a8 8 0 0 1-8 8h-484a8 8 0 0 1-8-8z" stroke="#3a414a" fill="#28ceff"/><use xlink:href="#m" transform="matrix(1,0,0,1,4212,2751.80852434173) translate(76.03385416666666 87.80729166666667)"/><use xlink:href="#n" transform="matrix(1,0,0,1,4212,2751.80852434173) translate(376.97135416666663 87.80729166666667)"/><use xlink:href="#m" transform="matrix(1,0,0,1,4212,2751.80852434173) translate(70.734375 152.33854166666669)"/><use xlink:href="#o" transform="matrix(1,0,0,1,4212,2751.80852434173) translate(371.671875 152.33854166666669)"/><use xlink:href="#m" transform="matrix(1,0,0,1,4212,2751.80852434173) translate(70.31770833333334 216.86979166666669)"/><use xlink:href="#p" transform="matrix(1,0,0,1,4212,2751.80852434173) translate(371.25520833333337 216.86979166666669)"/><use xlink:href="#q" transform="matrix(1,0,0,1,4212,2751.80852434173) translate(229.09375 281.4010416666667)"/><use xlink:href="#q" transform="matrix(1,0,0,1,4212,2751.80852434173) translate(229.09375 345.9322916666667)"/><use xlink:href="#q" transform="matrix(1,0,0,1,4212,2751.80852434173) translate(229.09375 410.4635416666667)"/><use xlink:href="#r" transform="matrix(1,0,0,1,4212,2751.80852434173) translate(238 474.9947916666667)"/><path d="M5034 2795.86a8 8 0 0 1 8-8h570a8 8 0 0 1 8 8v195.95a8 8 0 0 1-8 8h-570a8 8 0 0 1-8-8z" stroke="#3a414a" fill="#fff7a1"/><use xlink:href="#s" transform="matrix(1,0,0,1,5046.012738853504,2799.863892944314) translate(38.73437499999997 113.40104166666667)"/><path d="M4701 3013.68h154a12 12 0 0 0 12-12v-95.13a12 12 0 0 1 12-12h138.13" stroke="#3a414a" fill="none"/><path d="M4701 3014.15h-.5v-.95h.5z" stroke="#3a414a" stroke-width=".05" fill="#3a414a"/><path d="M5031.9 2894.55l-14.27 4.64v-9.28z" stroke="#3a414a" fill="#3a414a"/><path d="M5900 2687.8a8 8 0 0 1 8-8h584a8 8 0 0 1 8 8v511.42a8 8 0 0 1-8 8h-584a8 8 0 0 1-8-8z" stroke="#3a414a" fill="#ffa0a0"/><use xlink:href="#f" transform="matrix(1,0,0,1,5912,2691.8085243417295) translate(106.32031249999997 77.80729166666667)"/><use xlink:href="#t" transform="matrix(1,0,0,1,5912,2691.8085243417295) translate(253.84635416666666 77.80729166666667)"/><use xlink:href="#u" transform="matrix(1,0,0,1,5912,2691.8085243417295) translate(446.68489583333337 77.80729166666667)"/><use xlink:href="#f" transform="matrix(1,0,0,1,5912,2691.8085243417295) translate(101.02083333333331 142.33854166666669)"/><use xlink:href="#t" transform="matrix(1,0,0,1,5912,2691.8085243417295) translate(248.546875 142.33854166666669)"/><use xlink:href="#v" transform="matrix(1,0,0,1,5912,2691.8085243417295) translate(441.3854166666667 142.33854166666669)"/><use xlink:href="#f" transform="matrix(1,0,0,1,5912,2691.8085243417295) translate(100.60416666666666 206.86979166666669)"/><use xlink:href="#t" transform="matrix(1,0,0,1,5912,2691.8085243417295) translate(248.13020833333334 206.86979166666669)"/><use xlink:href="#w" transform="matrix(1,0,0,1,5912,2691.8085243417295) translate(440.96875 206.86979166666669)"/><use xlink:href="#x" transform="matrix(1,0,0,1,5912,2691.8085243417295) translate(279.09375 271.4010416666667)"/><use xlink:href="#x" transform="matrix(1,0,0,1,5912,2691.8085243417295) translate(279.09375 335.9322916666667)"/><use xlink:href="#x" transform="matrix(1,0,0,1,5912,2691.8085243417295) translate(279.09375 400.4635416666667)"/><use xlink:href="#r" transform="matrix(1,0,0,1,5912,2691.8085243417295) translate(288 464.9947916666667)"/><path d="M5621 2893.84h127a12 12 0 0 1 12 12v23.77a12 12 0 0 0 12 12h111.12" stroke="#3a414a" fill="none"/><path d="M5621 2894.3h-.5v-.94h.5z" stroke="#3a414a" stroke-width=".05" fill="#3a414a"/><path d="M5897.88 2941.6l-14.26 4.65v-9.27z" stroke="#3a414a" fill="#3a414a"/><path d="M4200 2568a8 8 0 0 1 8-8h484a8 8 0 0 1 8 8v140.23a8 8 0 0 1-8 8h-484a8 8 0 0 1-8-8z" stroke="#3a414a" fill="#28ceff"/><use xlink:href="#d" transform="matrix(1,0,0,1,4212,2572) translate(92.7265625 85.90104166666667)"/><use xlink:href="#e" transform="matrix(1,0,0,1,4212,2572) translate(238.66406250000003 85.90104166666667)"/><path d="M4701 2638.12h614a12 12 0 0 1 12 12v120.86" stroke="#3a414a" fill="none"/><path d="M4701 2638.6h-.5v-.96h.5z" stroke="#3a414a" stroke-width=".05" fill="#3a414a"/><path d="M5327 2785.75l-4.63-14.27h9.27z" stroke="#3a414a" fill="#3a414a"/><path d="M4220 2397.53a8 8 0 0 1 8-8h2205.9a8 8 0 0 1 8 8v90.6a8 8 0 0 1-8 8H4228a8 8 0 0 1-8-8z" fill="none"/><use xlink:href="#y" transform="matrix(1,0,0,1,4220,2389.525952381842) translate(500.16015625 77.75130208333334)"/><use xlink:href="#z" transform="matrix(1,0,0,1,4220,2389.525952381842) translate(780.8893229166667 77.75130208333334)"/><use xlink:href="#j" transform="matrix(1,0,0,1,4220,2389.525952381842) translate(1194.3984375 77.75130208333334)"/><use xlink:href="#k" transform="matrix(1,0,0,1,4220,2389.525952381842) translate(1274.8346354166665 77.75130208333334)"/><use xlink:href="#A" transform="matrix(1,0,0,1,4220,2389.525952381842) translate(1459.2421875 77.75130208333334)"/><path d="M3840 3408a8 8 0 0 1 8-8h3024a8 8 0 0 1 8 8v984a8 8 0 0 1-8 8H3848a8 8 0 0 1-8-8z" stroke="#3a414a" stroke-width="10" fill-opacity="0"/><path d="M3980 3728a8 8 0 0 1 8-8h387.53a8 8 0 0 1 8 8v103.64a8 8 0 0 1-8 8H3988a8 8 0 0 1-8-8z" stroke="#3a414a" fill="#28ceff"/><use xlink:href="#d" transform="matrix(1,0,0,1,3992.0000000000005,3732) translate(105.53385416666666 67.40104166666667)"/><use xlink:href="#B" transform="matrix(1,0,0,1,3992.0000000000005,3732) translate(251.47135416666669 67.40104166666667)"/><path d="M3980 4128a8 8 0 0 1 8-8h387.53a8 8 0 0 1 8 8v94.55a8 8 0 0 1-8 8H3988a8 8 0 0 1-8-8z" stroke="#3a414a" fill="#28ceff"/><use xlink:href="#d" transform="matrix(1,0,0,1,3991.9999999999995,4132) translate(100.23437499999999 62.90104166666667)"/><use xlink:href="#C" transform="matrix(1,0,0,1,3991.9999999999995,4132) translate(246.171875 62.90104166666667)"/><path d="M4880 3688a8 8 0 0 1 8-8h773.68a8 8 0 0 1 8 8v656.4a8 8 0 0 1-8 8H4888a8 8 0 0 1-8-8z" stroke="#3a414a" fill="#fff7a1"/><use xlink:href="#D" transform="matrix(1,0,0,1,4892,3692) translate(149.60156249999997 51.66666666666667)"/><path d="M5039.35 3868a8 8 0 0 1 8-8h425.72a8 8 0 0 1 8 8v134.5a8 8 0 0 1-8 8h-425.72a8 8 0 0 1-8-8z" stroke="#3a414a" fill="#fff7a1"/><use xlink:href="#E" transform="matrix(1,0,0,1,5051.345268404165,3872) translate(23.84375 82.90104166666667)"/><use xlink:href="#B" transform="matrix(1,0,0,1,5051.345268404165,3872) translate(371.1614583333333 82.90104166666667)"/><path d="M4384.53 3779.82h314.9a12 12 0 0 1 12 12v131.43a12 12 0 0 0 12 12h299.03" stroke="#3a414a" fill="none"/><path d="M4384.54 3780.3h-.5v-.95h.5z" stroke="#3a414a" stroke-width=".05" fill="#3a414a"/><path d="M5037.23 3935.25l-14.27 4.63v-9.27z" stroke="#3a414a" fill="#3a414a"/><path d="M6126.17 3702.15a8 8 0 0 1 8-8H6692a8 8 0 0 1 8 8V3942a8 8 0 0 1-8 8h-557.83a8 8 0 0 1-8-8z" stroke="#3a414a" fill="#ffa0a0"/><use xlink:href="#F" transform="matrix(1,0,0,1,6138.167570079707,3706.1511909082737) translate(111.1328125 103.13541666666667)"/><use xlink:href="#G" transform="matrix(1,0,0,1,6138.167570079707,3706.1511909082737) translate(258.6588541666667 103.13541666666667)"/><use xlink:href="#H" transform="matrix(1,0,0,1,6138.167570079707,3706.1511909082737) translate(71.08072916666663 167.66666666666669)"/><use xlink:href="#I" transform="matrix(1,0,0,1,6138.167570079707,3706.1511909082737) translate(244.07552083333334 167.66666666666669)"/><use xlink:href="#J" transform="matrix(1,0,0,1,6138.167570079707,3706.1511909082737) translate(322.6171875 167.66666666666669)"/><path d="M6126.17 4037.45a8 8 0 0 1 8-8H6692a8 8 0 0 1 8 8v239.85a8 8 0 0 1-8 8h-557.83a8 8 0 0 1-8-8z" stroke="#3a414a" fill="#ffa0a0"/><use xlink:href="#F" transform="matrix(1,0,0,1,6138.167570079707,4041.4461993180657) translate(111.1328125 103.13541666666667)"/><use xlink:href="#K" transform="matrix(1,0,0,1,6138.167570079707,4041.4461993180657) translate(258.6588541666667 103.13541666666667)"/><use xlink:href="#L" transform="matrix(1,0,0,1,6138.167570079707,4041.4461993180657) translate(65.78124999999997 167.66666666666669)"/><use xlink:href="#M" transform="matrix(1,0,0,1,6138.167570079707,4041.4461993180657) translate(238.77604166666669 167.66666666666669)"/><use xlink:href="#N" transform="matrix(1,0,0,1,6138.167570079707,4041.4461993180657) translate(317.31770833333337 167.66666666666669)"/><path d="M3980 3898.74a8 8 0 0 1 8-8h387.53a8 8 0 0 1 8 8v150.57a8 8 0 0 1-8 8H3988a8 8 0 0 1-8-8z" stroke="#3a414a" fill="#28ceff"/><use xlink:href="#O" transform="matrix(1,0,0,1,3992.000000000001,3902.7411186446116) translate(45.84635416666666 90.90104166666667)"/><path d="M4384.53 4175.28h316.9a10 10 0 0 0 10-10.02 10 10 0 0 1 10.02-10h301" stroke="#3a414a" fill="none"/><path d="M4384.54 4175.75h-.5v-.95h.5z" stroke="#3a414a" stroke-width=".05" fill="#3a414a"/><path d="M5037.23 4155.25l-14.27 4.63v-9.27z" stroke="#3a414a" fill="#3a414a"/><path d="M5039.35 4088a8 8 0 0 1 8-8h425.72a8 8 0 0 1 8 8v134.5a8 8 0 0 1-8 8h-425.72a8 8 0 0 1-8-8z" stroke="#3a414a" fill="#fff7a1"/><g><use xlink:href="#E" transform="matrix(1,0,0,1,5051.345268404165,4092.0000000000005) translate(18.544270833333343 82.90104166666667)"/><use xlink:href="#C" transform="matrix(1,0,0,1,5051.345268404165,4092.0000000000005) translate(365.86197916666663 82.90104166666667)"/></g><path d="M5482.07 3935.25h309.55a12 12 0 0 0 12-12v-89.17a12 12 0 0 1 12-12h293.66" stroke="#3a414a" fill="none"/><path d="M5482.1 3935.72h-.53v-.95h.52z" stroke="#3a414a" stroke-width=".05" fill="#3a414a"/><path d="M6124.05 3822.08l-14.27 4.63v-9.26z" stroke="#3a414a" fill="#3a414a"/><path d="M5482.07 4155.25h320.5a1.06 1.06 0 0 1 1.05 1.06 1.06 1.06 0 0 0 1.06 1.07h304.6" stroke="#3a414a" fill="none"/><path d="M5482.1 4155.72h-.53v-.95h.52z" stroke="#3a414a" stroke-width=".05" fill="#3a414a"/><path d="M6124.05 4157.37l-14.27 4.64v-9.26z" stroke="#3a414a" fill="#3a414a"/><path d="M3943.4 3463.72a8 8 0 0 1 8-8h2797.2a8 8 0 0 1 8 8v86.7a8 8 0 0 1-8 8H3951.4a8 8 0 0 1-8-8z" fill="none"/><g><use xlink:href="#P" transform="matrix(1,0,0,1,3943.387096774194,3455.7233920251165) translate(489.1940104166665 75.75130208333334)"/><use xlink:href="#Q" transform="matrix(1,0,0,1,3943.387096774194,3455.7233920251165) translate(865.3658854166665 75.75130208333334)"/><use xlink:href="#k" transform="matrix(1,0,0,1,3943.387096774194,3455.7233920251165) translate(945.8020833333333 75.75130208333334)"/><use xlink:href="#R" transform="matrix(1,0,0,1,3943.387096774194,3455.7233920251165) translate(1130.2096354166665 75.75130208333334)"/><use xlink:href="#S" transform="matrix(1,0,0,1,3943.387096774194,3455.7233920251165) translate(1371.2578125 75.75130208333334)"/><use xlink:href="#j" transform="matrix(1,0,0,1,3943.387096774194,3455.7233920251165) translate(1714.32421875 75.75130208333334)"/><use xlink:href="#T" transform="matrix(1,0,0,1,3943.387096774194,3455.7233920251165) translate(1794.7604166666667 75.75130208333334)"/><use xlink:href="#U" transform="matrix(1,0,0,1,3943.387096774194,3455.7233920251165) translate(2090.365885416667 75.75130208333334)"/></g><path d="M4384.53 3974.03h314.9a12 12 0 0 1 12 12V4115a12 12 0 0 0 12 12h299.03" stroke="#3a414a" fill="none"/><path d="M4384.54 3974.5h-.5v-.95h.5z" stroke="#3a414a" stroke-width=".05" fill="#3a414a"/><path d="M5037.23 4127l-14.27 4.64v-9.28z" stroke="#3a414a" fill="#3a414a"/><path d="M4384.53 3950.78h319.14a7.76 7.76 0 0 0 7.77-7.77 7.76 7.76 0 0 1 7.76-7.75h303.26" stroke="#3a414a" fill="none"/><path d="M4384.54 3951.25h-.5v-.95h.5z" stroke="#3a414a" stroke-width=".05" fill="#3a414a"/><path d="M5037.23 3935.25l-14.27 4.63v-9.27z" stroke="#3a414a" fill="#3a414a"/><path d="M3840 4452a8 8 0 0 1 8-8h3024a8 8 0 0 1 8 8v884a8 8 0 0 1-8 8H3848a8 8 0 0 1-8-8z" stroke="#3a414a" stroke-width="10" fill-opacity="0"/><path d="M4259.05 4496a8 8 0 0 1 8-8h2205.9a8 8 0 0 1 8 8v47.45a8 8 0 0 1-8 8h-2205.9a8 8 0 0 1-8-8z" fill="none"/><g><use xlink:href="#P" transform="matrix(1,0,0,1,4259.044585987261,4488) translate(576.7226562499999 64.58333333333334)"/><use xlink:href="#Q" transform="matrix(1,0,0,1,4259.044585987261,4488) translate(952.8945312499999 64.58333333333334)"/><use xlink:href="#V" transform="matrix(1,0,0,1,4259.044585987261,4488) translate(1033.3307291666665 64.58333333333334)"/><use xlink:href="#W" transform="matrix(1,0,0,1,4259.044585987261,4488) translate(1404.8802083333335 64.58333333333334)"/></g><path d="M3980 4845.3a8 8 0 0 1 8-8h302.7a8 8 0 0 1 8 8v156.02a8 8 0 0 1-8 8H3988a8 8 0 0 1-8-8z" stroke="#3a414a" fill="#28ceff"/><g><use xlink:href="#O" transform="matrix(1,0,0,1,3992,4849.304347826087) translate(3.346354166666657 93.90104166666667)"/></g><path d="M4434.46 4610.52a8 8 0 0 1 8-8h607.7a8 8 0 0 1 8 8v590a8 8 0 0 1-8 8h-607.7a8 8 0 0 1-8-8z" stroke="#3a414a" fill="#fff7a1"/><g><use xlink:href="#X" transform="matrix(1,0,0,1,4446.458598726114,4614.521739130435) translate(60.31249999999997 181.33854166666669)"/><use xlink:href="#Y" transform="matrix(1,0,0,1,4446.458598726114,4614.521739130435) translate(297.6041666666667 181.33854166666669)"/><use xlink:href="#Z" transform="matrix(1,0,0,1,4446.458598726114,4614.521739130435) translate(300 245.86979166666669)"/><use xlink:href="#aa" transform="matrix(1,0,0,1,4446.458598726114,4614.521739130435) translate(16.71875 310.4010416666667)"/><use xlink:href="#Y" transform="matrix(1,0,0,1,4446.458598726114,4614.521739130435) translate(341.19791666666663 310.4010416666667)"/><use xlink:href="#Z" transform="matrix(1,0,0,1,4446.458598726114,4614.521739130435) translate(300 374.9322916666667)"/><use xlink:href="#ab" transform="matrix(1,0,0,1,4446.458598726114,4614.521739130435) translate(12.734375 439.4635416666667)"/><use xlink:href="#ac" transform="matrix(1,0,0,1,4446.458598726114,4614.521739130435) translate(345.18229166666663 439.4635416666667)"/></g><path d="M5292.04 4827.5a8 8 0 0 1 8-8h332.88a8 8 0 0 1 8 8v156.03a8 8 0 0 1-8 8h-332.88a8 8 0 0 1-8-8z" stroke="#3a414a" fill="#fff7a1"/><g><use xlink:href="#ad" transform="matrix(1,0,0,1,5304.038216560509,4831.507123385531) translate(38.72395833333333 61.63541666666667)"/><use xlink:href="#ae" transform="matrix(1,0,0,1,5304.038216560509,4831.507123385531) translate(39.66145833333333 126.16666666666667)"/></g><path d="M5857.26 4825.74a8 8 0 0 1 8-8h332.88a8 8 0 0 1 8 8v133.73a8 8 0 0 1-8 8h-332.88a8 8 0 0 1-8-8z" stroke="#3a414a" fill="#fff7a1"/><g><use xlink:href="#af" transform="matrix(1,0,0,1,5869.261146496815,4829.739130434783) translate(38.554687499999986 51.66666666666667)"/><use xlink:href="#ag" transform="matrix(1,0,0,1,5869.261146496815,4829.739130434783) translate(46.640625 116.19791666666667)"/></g><path d="M6441.98 4627.12a8 8 0 0 1 8-8h334.82a8 8 0 0 1 8 8v530.97a8 8 0 0 1-8 8h-334.82a8 8 0 0 1-8-8z" stroke="#3a414a" fill="#ffa0a0"/><g><use xlink:href="#ah" transform="matrix(1,0,0,1,6453.974522292993,4631.119924166472) translate(68.72135416666666 87.30729166666667)"/><use xlink:href="#n" transform="matrix(1,0,0,1,6453.974522292993,4631.119924166472) translate(235.28385416666669 87.30729166666667)"/><use xlink:href="#ah" transform="matrix(1,0,0,1,6453.974522292993,4631.119924166472) translate(63.421874999999986 151.83854166666669)"/><use xlink:href="#o" transform="matrix(1,0,0,1,6453.974522292993,4631.119924166472) translate(229.984375 151.83854166666669)"/><use xlink:href="#ah" transform="matrix(1,0,0,1,6453.974522292993,4631.119924166472) translate(63.005208333333314 216.36979166666669)"/><use xlink:href="#p" transform="matrix(1,0,0,1,6453.974522292993,4631.119924166472) translate(229.56770833333334 216.36979166666669)"/><use xlink:href="#q" transform="matrix(1,0,0,1,6453.974522292993,4631.119924166472) translate(154.59375 280.9010416666667)"/><use xlink:href="#q" transform="matrix(1,0,0,1,6453.974522292993,4631.119924166472) translate(154.59375 345.4322916666667)"/><use xlink:href="#q" transform="matrix(1,0,0,1,6453.974522292993,4631.119924166472) translate(154.59375 409.9635416666667)"/><use xlink:href="#r" transform="matrix(1,0,0,1,6453.974522292993,4631.119924166472) translate(163.5 474.4947916666667)"/></g><path d="M4299.7 4923.3h117.88" stroke="#3a414a" fill="none"/><path d="M4299.72 4923.8h-.5v-.96h.5z" stroke="#3a414a" stroke-width=".05" fill="#3a414a"/><path d="M4432.34 4923.3l-14.27 4.65v-9.27z" stroke="#3a414a" fill="#3a414a"/><path d="M5059.15 4905.52h216" stroke="#3a414a" fill="none"/><path d="M5059.17 4906h-.52v-.96h.52z" stroke="#3a414a" stroke-width=".05" fill="#3a414a"/><path d="M5289.92 4905.52l-14.27 4.63v-9.27z" stroke="#3a414a" fill="#3a414a"/><path d="M5641.92 4905.52h106.3a.88.88 0 0 0 .87-.9.88.88 0 0 1 .87-.87h90.4" stroke="#3a414a" fill="none"/><path d="M5641.93 4906h-.5v-.96h.5z" stroke="#3a414a" stroke-width=".05" fill="#3a414a"/><path d="M5855.14 4903.75l-14.26 4.64v-9.28z" stroke="#3a414a" fill="#3a414a"/><path d="M6207.14 4892.6h217.95" stroke="#3a414a" fill="none"/><path d="M6207.16 4893.08h-.52v-.95h.52z" stroke="#3a414a" stroke-width=".05" fill="#3a414a"/><path d="M6439.86 4892.6l-14.27 4.64v-9.27z" stroke="#3a414a" fill="#3a414a"/><defs><path fill="#3a414a" d="M786 20C389 20 94-260 94-744c0-487 299-766 692-766 339 0 597 194 641 529h-309c-28-162-156-258-326-258-233 0-388 179-388 495 0 323 157 493 387 493 170 0 298-97 328-259h309c-34 277-266 530-642 530" id="ai"/><path fill="#3a414a" d="M628 22C291 22 81-210 81-554c0-346 210-578 547-578 336 0 547 232 547 578 0 344-211 576-547 576zm0-236c160 0 242-146 242-341 0-197-82-341-242-341S387-753 387-555c0 195 81 341 241 341" id="aj"/><path fill="#3a414a" d="M128 0v-1118h290v195h12c54-169 184-238 367-200v268c-27-8-86-15-130-15-138 0-239 95-239 234V0H128" id="ak"/><path fill="#3a414a" d="M537 19C279 19 81-185 81-557c0-382 206-575 454-575 190 0 278 113 318 202h10v-560h300V0H868v-179h-15C812-89 719 19 537 19zm92-241c153 0 240-134 240-336 0-203-86-334-240-334-158 0-240 138-240 334 0 197 84 336 240 336" id="al"/><path fill="#3a414a" d="M128 0v-1118h300V0H128zm150-1264c-91 0-165-68-165-154 0-85 74-154 165-154 90 0 165 69 165 154 0 86-75 154-165 154" id="am"/><path fill="#3a414a" d="M428-647V0H128v-1118h283l4 231c63-156 176-245 348-245 232 0 384 159 384 421V0H847v-659c0-139-76-222-202-222-128 0-217 86-217 234" id="an"/><path fill="#3a414a" d="M440 22C227 22 68-92 68-313c0-250 202-322 422-343 195-21 271-24 271-105 0-95-63-149-175-149-116 0-187 57-211 129l-275-46c57-194 237-305 487-305 240 0 474 108 474 379V0H777v-155h-10C713-51 605 22 440 22zm85-211c140 0 238-93 238-211v-121c-37 26-156 42-222 51-111 16-185 59-185 149 0 87 70 132 169 132" id="ao"/><path fill="#3a414a" d="M683-1118v229H474v562c0 71 29 104 102 104 23 0 73-7 95-13l43 225C647 9 580 16 520 16 296 16 174-96 174-301v-588H20v-229h154v-266h300v266h209" id="ap"/><path fill="#3a414a" d="M633 22C291 22 81-200 81-553c0-345 210-579 537-579 292 0 525 185 525 567v84H378c7 183 109 277 260 277 105 0 184-46 216-132l272 51C1071-99 893 22 633 22zM380-669h474c-15-146-94-237-233-237-143 0-229 99-241 237" id="aq"/><g id="a"><use transform="matrix(0.026041666666666668,0,0,0.026041666666666668,0,0)" xlink:href="#ai"/><use transform="matrix(0.026041666666666668,0,0,0.026041666666666668,39.453125,0)" xlink:href="#aj"/><use transform="matrix(0.026041666666666668,0,0,0.026041666666666668,72.16145833333334,0)" xlink:href="#aj"/><use transform="matrix(0.026041666666666668,0,0,0.026041666666666668,104.86979166666669,0)" xlink:href="#ak"/><use transform="matrix(0.026041666666666668,0,0,0.026041666666666668,125.28645833333336,0)" xlink:href="#al"/><use transform="matrix(0.026041666666666668,0,0,0.026041666666666668,158.90625000000003,0)" xlink:href="#am"/><use transform="matrix(0.026041666666666668,0,0,0.026041666666666668,173.35937500000003,0)" xlink:href="#an"/><use transform="matrix(0.026041666666666668,0,0,0.026041666666666668,206.56250000000003,0)" xlink:href="#ao"/><use transform="matrix(0.026041666666666668,0,0,0.026041666666666668,237.52604166666669,0)" xlink:href="#ap"/><use transform="matrix(0.026041666666666668,0,0,0.026041666666666668,256.53645833333337,0)" xlink:href="#aq"/></g><path fill="#3a414a" d="M49 0l509-1490h400L1480 0h-339l-115-346H497L386 0H49zm524-585h374c-75-213-124-402-192-666-66 268-110 453-182 666" id="ar"/><path fill="#3a414a" d="M428-1490V0H128v-1490h300" id="as"/><path fill="#3a414a" d="M572 22C302 22 117-98 78-306l279-48c29 105 101 156 224 156 114 0 185-48 185-115 0-118-228-130-337-155-215-49-322-150-322-317 0-215 187-347 470-347 265 0 424 116 466 298l-266 47c-24-76-87-130-196-130-98 0-174 46-174 113 0 56 38 95 144 117l201 40c216 44 320 143 320 302 0 220-207 367-500 367" id="at"/><path fill="#3a414a" d="M135 0v-1490h468l242 684c30 94 76 293 111 455 34-161 80-360 110-455l238-684h470V0h-307c0-447-3-765 11-1227-122 503-246 788-395 1227H826C676-435 552-717 427-1215c15 453 11 775 11 1215H135" id="au"/><path fill="#3a414a" d="M128 418v-1536h295v188h14c41-89 129-202 319-202 248 0 453 193 453 575 0 372-197 576-455 576-183 0-275-108-317-198h-9v597H128zm534-640c156 0 240-139 240-336 0-196-83-334-240-334-154 0-241 131-241 334 0 202 88 336 241 336" id="av"/><g id="b"><use transform="matrix(0.026041666666666668,0,0,0.026041666666666668,0,0)" xlink:href="#ar"/><use transform="matrix(0.026041666666666668,0,0,0.026041666666666668,38.359375,0)" xlink:href="#ap"/><use transform="matrix(0.026041666666666668,0,0,0.026041666666666668,58.020833333333336,0)" xlink:href="#as"/><use transform="matrix(0.026041666666666668,0,0,0.026041666666666668,72.47395833333334,0)" xlink:href="#ao"/><use transform="matrix(0.026041666666666668,0,0,0.026041666666666668,103.43750000000001,0)" xlink:href="#at"/><use transform="matrix(0.026041666666666668,0,0,0.026041666666666668,133.30729166666669,0)" xlink:href="#au"/><use transform="matrix(0.026041666666666668,0,0,0.026041666666666668,182.99479166666669,0)" xlink:href="#ao"/><use transform="matrix(0.026041666666666668,0,0,0.026041666666666668,213.95833333333334,0)" xlink:href="#av"/><use transform="matrix(0.026041666666666668,0,0,0.026041666666666668,247.578125,0)" xlink:href="#av"/><use transform="matrix(0.026041666666666668,0,0,0.026041666666666668,281.1979166666667,0)" xlink:href="#aq"/><use transform="matrix(0.026041666666666668,0,0,0.026041666666666668,312.96875,0)" xlink:href="#ak"/></g><path fill="#3a414a" d="M135 0v-1490h980v253H440v416h609v249H440V0H135" id="aw"/><path fill="#3a414a" d="M628 22C291 22 81-210 81-554c0-346 210-578 547-578 265 0 455 142 497 372l-279 52c-25-116-99-188-215-188-160 0-244 139-244 341 0 200 84 341 244 341 116 0 193-74 217-195l279 51C1085-123 896 22 628 22" id="ax"/><path fill="#3a414a" d="M428-647V0H128v-1490h294v586c65-146 175-228 341-228 232 0 385 159 385 421V0H847v-659c0-139-76-222-202-222-128 0-217 86-217 234" id="ay"/><g id="c"><use transform="matrix(0.026041666666666668,0,0,0.026041666666666668,0,0)" xlink:href="#ar"/><use transform="matrix(0.026041666666666668,0,0,0.026041666666666668,38.359375,0)" xlink:href="#ap"/><use transform="matrix(0.026041666666666668,0,0,0.026041666666666668,58.020833333333336,0)" xlink:href="#as"/><use transform="matrix(0.026041666666666668,0,0,0.026041666666666668,72.47395833333334,0)" xlink:href="#ao"/><use transform="matrix(0.026041666666666668,0,0,0.026041666666666668,103.43750000000001,0)" xlink:href="#at"/><use transform="matrix(0.026041666666666668,0,0,0.026041666666666668,133.30729166666669,0)" xlink:href="#aw"/><use transform="matrix(0.026041666666666668,0,0,0.026041666666666668,163.07291666666669,0)" xlink:href="#aq"/><use transform="matrix(0.026041666666666668,0,0,0.026041666666666668,194.84375000000003,0)" xlink:href="#ap"/><use transform="matrix(0.026041666666666668,0,0,0.026041666666666668,213.85416666666669,0)" xlink:href="#ax"/><use transform="matrix(0.026041666666666668,0,0,0.026041666666666668,245.234375,0)" xlink:href="#ay"/><use transform="matrix(0.026041666666666668,0,0,0.026041666666666668,278.4375,0)" xlink:href="#aq"/><use transform="matrix(0.026041666666666668,0,0,0.026041666666666668,310.2083333333333,0)" xlink:href="#ak"/></g><g id="d"><use transform="matrix(0.026041666666666668,0,0,0.026041666666666668,0,0)" xlink:href="#ar"/><use transform="matrix(0.026041666666666668,0,0,0.026041666666666668,38.359375,0)" xlink:href="#ap"/><use transform="matrix(0.026041666666666668,0,0,0.026041666666666668,58.020833333333336,0)" xlink:href="#as"/><use transform="matrix(0.026041666666666668,0,0,0.026041666666666668,72.47395833333334,0)" xlink:href="#ao"/><use transform="matrix(0.026041666666666668,0,0,0.026041666666666668,103.43750000000001,0)" xlink:href="#at"/></g><path fill="#3a414a" d="M128 0v-1118h278l12 217c60-163 185-234 319-234 143 0 236 81 288 251 63-172 205-251 359-251 205 0 357 138 357 381V0h-301v-697c0-126-76-187-177-187-114 0-184 79-184 196V0H789v-705c0-109-72-179-174-179-106 0-187 74-187 208V0H128" id="az"/><g id="e"><use transform="matrix(0.026041666666666668,0,0,0.026041666666666668,0,0)" xlink:href="#an"/><use transform="matrix(0.026041666666666668,0,0,0.026041666666666668,33.203125,0)" xlink:href="#ao"/><use transform="matrix(0.026041666666666668,0,0,0.026041666666666668,64.16666666666667,0)" xlink:href="#az"/><use transform="matrix(0.026041666666666668,0,0,0.026041666666666668,112.83854166666667,0)" xlink:href="#aq"/></g><path fill="#3a414a" d="M135 0v-1490h591c327 0 492 160 492 383 0 177-115 286-268 320v15c168 8 326 140 326 361 0 236-176 411-512 411H135zm305-251h264c179 0 258-76 258-189 0-125-97-215-250-215H440v404zm0-613h241c131 0 228-74 228-194 0-109-79-183-222-183H440v377" id="aA"/><g id="f"><use transform="matrix(0.026041666666666668,0,0,0.026041666666666668,0,0)" xlink:href="#aA"/><use transform="matrix(0.026041666666666668,0,0,0.026041666666666668,35.286458333333336,0)" xlink:href="#ak"/><use transform="matrix(0.026041666666666668,0,0,0.026041666666666668,56.27604166666667,0)" xlink:href="#ao"/><use transform="matrix(0.026041666666666668,0,0,0.026041666666666668,87.23958333333334,0)" xlink:href="#am"/><use transform="matrix(0.026041666666666668,0,0,0.026041666666666668,101.69270833333334,0)" xlink:href="#an"/></g><path fill="#3a414a" d="M135 0v-1490h581c339 0 533 192 533 485 0 204-94 351-264 424L1302 0H964L680-532H440V0H135zm305-779h220c186 0 274-77 274-226 0-150-88-233-275-233H440v459" id="aB"/><path fill="#3a414a" d="M625 442c-280 0-454-114-503-274l258-72c28 63 97 128 243 128 153 0 246-69 246-216v-206h-23C805-108 717-16 536-16 284-16 81-191 81-561c0-378 208-571 456-571 188 0 280 113 321 202h13v-188h295V-9c0 303-226 451-541 451zm5-686c153 0 240-119 240-319 0-198-86-329-240-329-158 0-241 137-241 329 0 195 85 319 241 319" id="aC"/><g id="g"><use transform="matrix(0.026041666666666668,0,0,0.026041666666666668,0,0)" xlink:href="#aB"/><use transform="matrix(0.026041666666666668,0,0,0.026041666666666668,34.37500000000001,0)" xlink:href="#aq"/><use transform="matrix(0.026041666666666668,0,0,0.026041666666666668,66.14583333333334,0)" xlink:href="#aC"/><use transform="matrix(0.026041666666666668,0,0,0.026041666666666668,99.84375000000001,0)" xlink:href="#am"/><use transform="matrix(0.026041666666666668,0,0,0.026041666666666668,114.296875,0)" xlink:href="#aj"/><use transform="matrix(0.026041666666666668,0,0,0.026041666666666668,147.00520833333334,0)" xlink:href="#an"/></g><path fill="#3a414a" d="M681 22C323 22 94-145 85-462h297c10 151 131 226 296 226 163 0 271-77 271-190 0-102-95-149-257-189l-164-41c-252-61-403-188-403-405 0-269 236-449 560-449 330 0 546 183 551 445H941c-11-119-106-188-259-188-156 0-244 72-244 172-3 156 226 185 373 221 250 61 445 186 445 436 0 271-213 446-575 446" id="aD"/><g id="h"><use transform="matrix(0.032552083333333336,0,0,0.032552083333333336,0,0)" xlink:href="#aD"/><use transform="matrix(0.032552083333333336,0,0,0.032552083333333336,43.65234375,0)" xlink:href="#am"/><use transform="matrix(0.032552083333333336,0,0,0.032552083333333336,61.71875,0)" xlink:href="#an"/><use transform="matrix(0.032552083333333336,0,0,0.032552083333333336,103.22265625000001,0)" xlink:href="#aC"/><use transform="matrix(0.032552083333333336,0,0,0.032552083333333336,145.34505208333334,0)" xlink:href="#as"/><use transform="matrix(0.032552083333333336,0,0,0.032552083333333336,163.41145833333334,0)" xlink:href="#aq"/></g><g id="i"><use transform="matrix(0.032552083333333336,0,0,0.032552083333333336,0,0)" xlink:href="#ai"/><use transform="matrix(0.032552083333333336,0,0,0.032552083333333336,49.31640625,0)" xlink:href="#aj"/><use transform="matrix(0.032552083333333336,0,0,0.032552083333333336,90.20182291666667,0)" xlink:href="#aj"/><use transform="matrix(0.032552083333333336,0,0,0.032552083333333336,131.08723958333334,0)" xlink:href="#ak"/><use transform="matrix(0.032552083333333336,0,0,0.032552083333333336,156.60807291666669,0)" xlink:href="#al"/><use transform="matrix(0.032552083333333336,0,0,0.032552083333333336,198.6328125,0)" xlink:href="#am"/><use transform="matrix(0.032552083333333336,0,0,0.032552083333333336,216.69921875000003,0)" xlink:href="#an"/><use transform="matrix(0.032552083333333336,0,0,0.032552083333333336,258.203125,0)" xlink:href="#ao"/><use transform="matrix(0.032552083333333336,0,0,0.032552083333333336,296.9075520833333,0)" xlink:href="#ap"/><use transform="matrix(0.032552083333333336,0,0,0.032552083333333336,320.67057291666663,0)" xlink:href="#aq"/></g><g id="j"><use transform="matrix(0.032552083333333336,0,0,0.032552083333333336,0,0)" xlink:href="#ap"/><use transform="matrix(0.032552083333333336,0,0,0.032552083333333336,23.763020833333332,0)" xlink:href="#aj"/></g><g id="k"><use transform="matrix(0.032552083333333336,0,0,0.032552083333333336,0,0)" xlink:href="#aA"/><use transform="matrix(0.032552083333333336,0,0,0.032552083333333336,44.10807291666667,0)" xlink:href="#ak"/><use transform="matrix(0.032552083333333336,0,0,0.032552083333333336,70.34505208333334,0)" xlink:href="#ao"/><use transform="matrix(0.032552083333333336,0,0,0.032552083333333336,109.04947916666669,0)" xlink:href="#am"/><use transform="matrix(0.032552083333333336,0,0,0.032552083333333336,127.11588541666669,0)" xlink:href="#an"/></g><g id="l"><use transform="matrix(0.032552083333333336,0,0,0.032552083333333336,0,0)" xlink:href="#aB"/><use transform="matrix(0.032552083333333336,0,0,0.032552083333333336,42.96875,0)" xlink:href="#aq"/><use transform="matrix(0.032552083333333336,0,0,0.032552083333333336,82.68229166666667,0)" xlink:href="#aC"/><use transform="matrix(0.032552083333333336,0,0,0.032552083333333336,124.8046875,0)" xlink:href="#am"/><use transform="matrix(0.032552083333333336,0,0,0.032552083333333336,142.87109375,0)" xlink:href="#aj"/><use transform="matrix(0.032552083333333336,0,0,0.032552083333333336,183.75651041666669,0)" xlink:href="#an"/></g><g id="m"><use transform="matrix(0.026041666666666668,0,0,0.026041666666666668,0,0)" xlink:href="#ai"/><use transform="matrix(0.026041666666666668,0,0,0.026041666666666668,39.453125,0)" xlink:href="#aj"/><use transform="matrix(0.026041666666666668,0,0,0.026041666666666668,72.16145833333334,0)" xlink:href="#aj"/><use transform="matrix(0.026041666666666668,0,0,0.026041666666666668,104.86979166666669,0)" xlink:href="#ak"/><use transform="matrix(0.026041666666666668,0,0,0.026041666666666668,125.28645833333336,0)" xlink:href="#al"/><use transform="matrix(0.026041666666666668,0,0,0.026041666666666668,158.90625000000003,0)" xlink:href="#am"/><use transform="matrix(0.026041666666666668,0,0,0.026041666666666668,173.35937500000003,0)" xlink:href="#an"/><use transform="matrix(0.026041666666666668,0,0,0.026041666666666668,206.56250000000003,0)" xlink:href="#ao"/><use transform="matrix(0.026041666666666668,0,0,0.026041666666666668,237.52604166666669,0)" xlink:href="#ap"/><use transform="matrix(0.026041666666666668,0,0,0.026041666666666668,256.53645833333337,0)" xlink:href="#aq"/></g><path fill="#3a414a" d="M749-1490V0H444v-1221h-10L93-980v-279l329-231h327" id="aE"/><use transform="matrix(0.026041666666666668,0,0,0.026041666666666668,0,0)" xlink:href="#aE" id="n"/><path fill="#3a414a" d="M124 0v-220l528-495c135-132 210-216 210-336 0-133-98-215-231-215-139 0-229 88-229 233H110c0-290 214-477 523-477 315 0 525 182 525 440 0 167-80 305-385 586L548-262v11h630V0H124" id="aF"/><use transform="matrix(0.026041666666666668,0,0,0.026041666666666668,0,0)" xlink:href="#aF" id="o"/><path fill="#3a414a" d="M659 20C335 20 103-159 99-418h307c5 112 113 185 254 185 147 0 250-83 250-204 0-123-105-209-278-209H494v-227h138c145 0 246-81 246-200 0-115-87-193-216-193-130 0-237 73-240 189H128c4-255 233-433 536-433 306 0 510 185 510 418 0 167-114 285-279 317v11c217 29 333 162 333 347 0 254-237 437-569 437" id="aG"/><use transform="matrix(0.026041666666666668,0,0,0.026041666666666668,0,0)" xlink:href="#aG" id="p"/><path fill="#3a414a" d="M342 19c-98 0-173-75-173-172s75-172 173-172 173 75 173 172S440 19 342 19" id="aH"/><use transform="matrix(0.026041666666666668,0,0,0.026041666666666668,0,0)" xlink:href="#aH" id="q"/><g id="s"><use transform="matrix(0.026041666666666668,0,0,0.026041666666666668,0,0)" xlink:href="#aA"/><use transform="matrix(0.026041666666666668,0,0,0.026041666666666668,35.286458333333336,0)" xlink:href="#ao"/><use transform="matrix(0.026041666666666668,0,0,0.026041666666666668,66.25,0)" xlink:href="#ap"/><use transform="matrix(0.026041666666666668,0,0,0.026041666666666668,85.26041666666667,0)" xlink:href="#ax"/><use transform="matrix(0.026041666666666668,0,0,0.026041666666666668,116.640625,0)" xlink:href="#ay"/><use transform="matrix(0.026041666666666668,0,0,0.026041666666666668,149.84375,0)" xlink:href="#ar"/><use transform="matrix(0.026041666666666668,0,0,0.026041666666666668,188.203125,0)" xlink:href="#ap"/><use transform="matrix(0.026041666666666668,0,0,0.026041666666666668,207.86458333333334,0)" xlink:href="#as"/><use transform="matrix(0.026041666666666668,0,0,0.026041666666666668,222.31770833333334,0)" xlink:href="#ao"/><use transform="matrix(0.026041666666666668,0,0,0.026041666666666668,253.28125,0)" xlink:href="#at"/><use transform="matrix(0.026041666666666668,0,0,0.026041666666666668,283.1510416666667,0)" xlink:href="#au"/><use transform="matrix(0.026041666666666668,0,0,0.026041666666666668,332.8385416666667,0)" xlink:href="#ao"/><use transform="matrix(0.026041666666666668,0,0,0.026041666666666668,363.80208333333337,0)" xlink:href="#av"/><use transform="matrix(0.026041666666666668,0,0,0.026041666666666668,397.42187500000006,0)" xlink:href="#av"/><use transform="matrix(0.026041666666666668,0,0,0.026041666666666668,431.0416666666668,0)" xlink:href="#aq"/><use transform="matrix(0.026041666666666668,0,0,0.026041666666666668,462.8125,0)" xlink:href="#ak"/></g><g id="t"><use transform="matrix(0.026041666666666668,0,0,0.026041666666666668,0,0)" xlink:href="#aB"/><use transform="matrix(0.026041666666666668,0,0,0.026041666666666668,34.37500000000001,0)" xlink:href="#aq"/><use transform="matrix(0.026041666666666668,0,0,0.026041666666666668,66.14583333333334,0)" xlink:href="#aC"/><use transform="matrix(0.026041666666666668,0,0,0.026041666666666668,99.84375000000001,0)" xlink:href="#am"/><use transform="matrix(0.026041666666666668,0,0,0.026041666666666668,114.296875,0)" xlink:href="#aj"/><use transform="matrix(0.026041666666666668,0,0,0.026041666666666668,147.00520833333334,0)" xlink:href="#an"/></g><use transform="matrix(0.026041666666666668,0,0,0.026041666666666668,0,0)" xlink:href="#aE" id="u"/><use transform="matrix(0.026041666666666668,0,0,0.026041666666666668,0,0)" xlink:href="#aF" id="v"/><use transform="matrix(0.026041666666666668,0,0,0.026041666666666668,0,0)" xlink:href="#aG" id="w"/><use transform="matrix(0.026041666666666668,0,0,0.026041666666666668,0,0)" xlink:href="#aH" id="x"/><path fill="#3a414a" d="M513 14c-232 0-385-159-385-421v-711h300v659c0 139 76 222 202 222 127 0 217-86 217-234v-647h301V0H864l-4-232C797-74 683 14 513 14" id="aI"/><g id="y"><use transform="matrix(0.032552083333333336,0,0,0.032552083333333336,0,0)" xlink:href="#au"/><use transform="matrix(0.032552083333333336,0,0,0.032552083333333336,62.10937500000001,0)" xlink:href="#aI"/><use transform="matrix(0.032552083333333336,0,0,0.032552083333333336,103.61328125000001,0)" xlink:href="#as"/><use transform="matrix(0.032552083333333336,0,0,0.032552083333333336,122.65625,0)" xlink:href="#ap"/><use transform="matrix(0.032552083333333336,0,0,0.032552083333333336,147.0703125,0)" xlink:href="#am"/><use transform="matrix(0.032552083333333336,0,0,0.032552083333333336,165.13671875,0)" xlink:href="#av"/><use transform="matrix(0.032552083333333336,0,0,0.032552083333333336,207.16145833333334,0)" xlink:href="#as"/><use transform="matrix(0.032552083333333336,0,0,0.032552083333333336,225.22786458333334,0)" xlink:href="#aq"/></g><g id="z"><use transform="matrix(0.032552083333333336,0,0,0.032552083333333336,0,0)" xlink:href="#ai"/><use transform="matrix(0.032552083333333336,0,0,0.032552083333333336,49.31640625,0)" xlink:href="#aj"/><use transform="matrix(0.032552083333333336,0,0,0.032552083333333336,90.20182291666667,0)" xlink:href="#aj"/><use transform="matrix(0.032552083333333336,0,0,0.032552083333333336,131.08723958333334,0)" xlink:href="#ak"/><use transform="matrix(0.032552083333333336,0,0,0.032552083333333336,156.60807291666669,0)" xlink:href="#al"/><use transform="matrix(0.032552083333333336,0,0,0.032552083333333336,198.6328125,0)" xlink:href="#am"/><use transform="matrix(0.032552083333333336,0,0,0.032552083333333336,216.69921875000003,0)" xlink:href="#an"/><use transform="matrix(0.032552083333333336,0,0,0.032552083333333336,258.203125,0)" xlink:href="#ao"/><use transform="matrix(0.032552083333333336,0,0,0.032552083333333336,296.9075520833333,0)" xlink:href="#ap"/><use transform="matrix(0.032552083333333336,0,0,0.032552083333333336,320.67057291666663,0)" xlink:href="#aq"/><use transform="matrix(0.032552083333333336,0,0,0.032552083333333336,360.3841145833333,0)" xlink:href="#at"/></g><g id="A"><use transform="matrix(0.032552083333333336,0,0,0.032552083333333336,0,0)" xlink:href="#aB"/><use transform="matrix(0.032552083333333336,0,0,0.032552083333333336,42.96875,0)" xlink:href="#aq"/><use transform="matrix(0.032552083333333336,0,0,0.032552083333333336,82.68229166666667,0)" xlink:href="#aC"/><use transform="matrix(0.032552083333333336,0,0,0.032552083333333336,124.8046875,0)" xlink:href="#am"/><use transform="matrix(0.032552083333333336,0,0,0.032552083333333336,142.87109375,0)" xlink:href="#aj"/><use transform="matrix(0.032552083333333336,0,0,0.032552083333333336,183.75651041666669,0)" xlink:href="#an"/><use transform="matrix(0.032552083333333336,0,0,0.032552083333333336,225.26041666666669,0)" xlink:href="#at"/></g><use transform="matrix(0.026041666666666668,0,0,0.026041666666666668,0,0)" xlink:href="#aE" id="B"/><use transform="matrix(0.026041666666666668,0,0,0.026041666666666668,0,0)" xlink:href="#aF" id="C"/><g id="D"><use transform="matrix(0.026041666666666668,0,0,0.026041666666666668,0,0)" xlink:href="#au"/><use transform="matrix(0.026041666666666668,0,0,0.026041666666666668,49.6875,0)" xlink:href="#aI"/><use transform="matrix(0.026041666666666668,0,0,0.026041666666666668,82.890625,0)" xlink:href="#as"/><use transform="matrix(0.026041666666666668,0,0,0.026041666666666668,98.125,0)" xlink:href="#ap"/><use transform="matrix(0.026041666666666668,0,0,0.026041666666666668,117.65625,0)" xlink:href="#am"/><use transform="matrix(0.026041666666666668,0,0,0.026041666666666668,132.109375,0)" xlink:href="#ar"/><use transform="matrix(0.026041666666666668,0,0,0.026041666666666668,170.46875,0)" xlink:href="#ap"/><use transform="matrix(0.026041666666666668,0,0,0.026041666666666668,190.13020833333334,0)" xlink:href="#as"/><use transform="matrix(0.026041666666666668,0,0,0.026041666666666668,204.58333333333334,0)" xlink:href="#ao"/><use transform="matrix(0.026041666666666668,0,0,0.026041666666666668,235.546875,0)" xlink:href="#at"/><use transform="matrix(0.026041666666666668,0,0,0.026041666666666668,265.4166666666667,0)" xlink:href="#au"/><use transform="matrix(0.026041666666666668,0,0,0.026041666666666668,315.1041666666667,0)" xlink:href="#ao"/><use transform="matrix(0.026041666666666668,0,0,0.026041666666666668,346.06770833333337,0)" xlink:href="#av"/><use transform="matrix(0.026041666666666668,0,0,0.026041666666666668,379.68750000000006,0)" xlink:href="#av"/><use transform="matrix(0.026041666666666668,0,0,0.026041666666666668,413.30729166666674,0)" xlink:href="#aq"/><use transform="matrix(0.026041666666666668,0,0,0.026041666666666668,445.078125,0)" xlink:href="#ak"/></g><g id="E"><use transform="matrix(0.026041666666666668,0,0,0.026041666666666668,0,0)" xlink:href="#ar"/><use transform="matrix(0.026041666666666668,0,0,0.026041666666666668,38.359375,0)" xlink:href="#ap"/><use transform="matrix(0.026041666666666668,0,0,0.026041666666666668,58.020833333333336,0)" xlink:href="#as"/><use transform="matrix(0.026041666666666668,0,0,0.026041666666666668,72.47395833333334,0)" xlink:href="#ao"/><use transform="matrix(0.026041666666666668,0,0,0.026041666666666668,103.43750000000001,0)" xlink:href="#at"/><use transform="matrix(0.026041666666666668,0,0,0.026041666666666668,133.30729166666669,0)" xlink:href="#au"/><use transform="matrix(0.026041666666666668,0,0,0.026041666666666668,182.99479166666669,0)" xlink:href="#ao"/><use transform="matrix(0.026041666666666668,0,0,0.026041666666666668,213.95833333333334,0)" xlink:href="#av"/><use transform="matrix(0.026041666666666668,0,0,0.026041666666666668,247.578125,0)" xlink:href="#av"/><use transform="matrix(0.026041666666666668,0,0,0.026041666666666668,281.1979166666667,0)" xlink:href="#aq"/><use transform="matrix(0.026041666666666668,0,0,0.026041666666666668,312.96875,0)" xlink:href="#ak"/></g><g id="F"><use transform="matrix(0.026041666666666668,0,0,0.026041666666666668,0,0)" xlink:href="#aA"/><use transform="matrix(0.026041666666666668,0,0,0.026041666666666668,35.286458333333336,0)" xlink:href="#ak"/><use transform="matrix(0.026041666666666668,0,0,0.026041666666666668,56.27604166666667,0)" xlink:href="#ao"/><use transform="matrix(0.026041666666666668,0,0,0.026041666666666668,87.23958333333334,0)" xlink:href="#am"/><use transform="matrix(0.026041666666666668,0,0,0.026041666666666668,101.69270833333334,0)" xlink:href="#an"/></g><g id="G"><use transform="matrix(0.026041666666666668,0,0,0.026041666666666668,0,0)" xlink:href="#aB"/><use transform="matrix(0.026041666666666668,0,0,0.026041666666666668,34.37500000000001,0)" xlink:href="#aq"/><use transform="matrix(0.026041666666666668,0,0,0.026041666666666668,66.14583333333334,0)" xlink:href="#aC"/><use transform="matrix(0.026041666666666668,0,0,0.026041666666666668,99.84375000000001,0)" xlink:href="#am"/><use transform="matrix(0.026041666666666668,0,0,0.026041666666666668,114.296875,0)" xlink:href="#aj"/><use transform="matrix(0.026041666666666668,0,0,0.026041666666666668,147.00520833333334,0)" xlink:href="#an"/></g><path fill="#3a414a" d="M754 19C571 19 479-89 437-179h-14V0H128v-1490h300v560h9c41-89 129-202 319-202 248 0 453 193 453 575 0 372-197 576-455 576zm-92-241c156 0 240-139 240-336 0-196-83-334-240-334-154 0-241 131-241 334 0 202 88 336 241 336" id="aJ"/><g id="H"><use transform="matrix(0.026041666666666668,0,0,0.026041666666666668,0,0)" xlink:href="#aJ"/><use transform="matrix(0.026041666666666668,0,0,0.026041666666666668,34.14062500000001,0)" xlink:href="#ao"/><use transform="matrix(0.026041666666666668,0,0,0.026041666666666668,65.10416666666667,0)" xlink:href="#at"/><use transform="matrix(0.026041666666666668,0,0,0.026041666666666668,94.97395833333334,0)" xlink:href="#aq"/><use transform="matrix(0.026041666666666668,0,0,0.026041666666666668,126.7447916666667,0)" xlink:href="#al"/></g><g id="I"><use transform="matrix(0.026041666666666668,0,0,0.026041666666666668,0,0)" xlink:href="#aj"/><use transform="matrix(0.026041666666666668,0,0,0.026041666666666668,32.708333333333336,0)" xlink:href="#an"/></g><g id="J"><use transform="matrix(0.026041666666666668,0,0,0.026041666666666668,0,0)" xlink:href="#ar"/><use transform="matrix(0.026041666666666668,0,0,0.026041666666666668,38.359375,0)" xlink:href="#ap"/><use transform="matrix(0.026041666666666668,0,0,0.026041666666666668,58.020833333333336,0)" xlink:href="#as"/><use transform="matrix(0.026041666666666668,0,0,0.026041666666666668,72.47395833333334,0)" xlink:href="#ao"/><use transform="matrix(0.026041666666666668,0,0,0.026041666666666668,103.43750000000001,0)" xlink:href="#at"/><use transform="matrix(0.026041666666666668,0,0,0.026041666666666668,133.30729166666669,0)" xlink:href="#aE"/></g><g id="K"><use transform="matrix(0.026041666666666668,0,0,0.026041666666666668,0,0)" xlink:href="#aB"/><use transform="matrix(0.026041666666666668,0,0,0.026041666666666668,34.37500000000001,0)" xlink:href="#aq"/><use transform="matrix(0.026041666666666668,0,0,0.026041666666666668,66.14583333333334,0)" xlink:href="#aC"/><use transform="matrix(0.026041666666666668,0,0,0.026041666666666668,99.84375000000001,0)" xlink:href="#am"/><use transform="matrix(0.026041666666666668,0,0,0.026041666666666668,114.296875,0)" xlink:href="#aj"/><use transform="matrix(0.026041666666666668,0,0,0.026041666666666668,147.00520833333334,0)" xlink:href="#an"/></g><g id="L"><use transform="matrix(0.026041666666666668,0,0,0.026041666666666668,0,0)" xlink:href="#aJ"/><use transform="matrix(0.026041666666666668,0,0,0.026041666666666668,34.14062500000001,0)" xlink:href="#ao"/><use transform="matrix(0.026041666666666668,0,0,0.026041666666666668,65.10416666666667,0)" xlink:href="#at"/><use transform="matrix(0.026041666666666668,0,0,0.026041666666666668,94.97395833333334,0)" xlink:href="#aq"/><use transform="matrix(0.026041666666666668,0,0,0.026041666666666668,126.7447916666667,0)" xlink:href="#al"/></g><g id="M"><use transform="matrix(0.026041666666666668,0,0,0.026041666666666668,0,0)" xlink:href="#aj"/><use transform="matrix(0.026041666666666668,0,0,0.026041666666666668,32.708333333333336,0)" xlink:href="#an"/></g><g id="N"><use transform="matrix(0.026041666666666668,0,0,0.026041666666666668,0,0)" xlink:href="#ar"/><use transform="matrix(0.026041666666666668,0,0,0.026041666666666668,38.359375,0)" xlink:href="#ap"/><use transform="matrix(0.026041666666666668,0,0,0.026041666666666668,58.020833333333336,0)" xlink:href="#as"/><use transform="matrix(0.026041666666666668,0,0,0.026041666666666668,72.47395833333334,0)" xlink:href="#ao"/><use transform="matrix(0.026041666666666668,0,0,0.026041666666666668,103.43750000000001,0)" xlink:href="#at"/><use transform="matrix(0.026041666666666668,0,0,0.026041666666666668,133.30729166666669,0)" xlink:href="#aF"/></g><g id="O"><use transform="matrix(0.026041666666666668,0,0,0.026041666666666668,0,0)" xlink:href="#ai"/><use transform="matrix(0.026041666666666668,0,0,0.026041666666666668,39.453125,0)" xlink:href="#aj"/><use transform="matrix(0.026041666666666668,0,0,0.026041666666666668,72.16145833333334,0)" xlink:href="#aj"/><use transform="matrix(0.026041666666666668,0,0,0.026041666666666668,104.86979166666669,0)" xlink:href="#ak"/><use transform="matrix(0.026041666666666668,0,0,0.026041666666666668,125.28645833333336,0)" xlink:href="#al"/><use transform="matrix(0.026041666666666668,0,0,0.026041666666666668,158.90625000000003,0)" xlink:href="#am"/><use transform="matrix(0.026041666666666668,0,0,0.026041666666666668,173.35937500000003,0)" xlink:href="#an"/><use transform="matrix(0.026041666666666668,0,0,0.026041666666666668,206.56250000000003,0)" xlink:href="#ao"/><use transform="matrix(0.026041666666666668,0,0,0.026041666666666668,237.52604166666669,0)" xlink:href="#ap"/><use transform="matrix(0.026041666666666668,0,0,0.026041666666666668,256.53645833333337,0)" xlink:href="#aq"/></g><g id="P"><use transform="matrix(0.032552083333333336,0,0,0.032552083333333336,0,0)" xlink:href="#ai"/><use transform="matrix(0.032552083333333336,0,0,0.032552083333333336,49.31640625,0)" xlink:href="#aj"/><use transform="matrix(0.032552083333333336,0,0,0.032552083333333336,90.20182291666667,0)" xlink:href="#aj"/><use transform="matrix(0.032552083333333336,0,0,0.032552083333333336,131.08723958333334,0)" xlink:href="#ak"/><use transform="matrix(0.032552083333333336,0,0,0.032552083333333336,156.60807291666669,0)" xlink:href="#al"/><use transform="matrix(0.032552083333333336,0,0,0.032552083333333336,198.6328125,0)" xlink:href="#am"/><use transform="matrix(0.032552083333333336,0,0,0.032552083333333336,216.69921875000003,0)" xlink:href="#an"/><use transform="matrix(0.032552083333333336,0,0,0.032552083333333336,258.203125,0)" xlink:href="#ao"/><use transform="matrix(0.032552083333333336,0,0,0.032552083333333336,296.9075520833333,0)" xlink:href="#ap"/><use transform="matrix(0.032552083333333336,0,0,0.032552083333333336,320.67057291666663,0)" xlink:href="#aq"/></g><g id="Q"><use transform="matrix(0.032552083333333336,0,0,0.032552083333333336,0,0)" xlink:href="#ap"/><use transform="matrix(0.032552083333333336,0,0,0.032552083333333336,23.763020833333332,0)" xlink:href="#aj"/></g><g id="R"><use transform="matrix(0.032552083333333336,0,0,0.032552083333333336,0,0)" xlink:href="#aB"/><use transform="matrix(0.032552083333333336,0,0,0.032552083333333336,42.96875,0)" xlink:href="#aq"/><use transform="matrix(0.032552083333333336,0,0,0.032552083333333336,82.68229166666667,0)" xlink:href="#aC"/><use transform="matrix(0.032552083333333336,0,0,0.032552083333333336,124.8046875,0)" xlink:href="#am"/><use transform="matrix(0.032552083333333336,0,0,0.032552083333333336,142.87109375,0)" xlink:href="#aj"/><use transform="matrix(0.032552083333333336,0,0,0.032552083333333336,183.75651041666669,0)" xlink:href="#an"/></g><g id="S"><use transform="matrix(0.032552083333333336,0,0,0.032552083333333336,0,0)" xlink:href="#ao"/><use transform="matrix(0.032552083333333336,0,0,0.032552083333333336,38.704427083333336,0)" xlink:href="#ax"/><use transform="matrix(0.032552083333333336,0,0,0.032552083333333336,77.9296875,0)" xlink:href="#ax"/><use transform="matrix(0.032552083333333336,0,0,0.032552083333333336,117.15494791666667,0)" xlink:href="#aj"/><use transform="matrix(0.032552083333333336,0,0,0.032552083333333336,158.04036458333334,0)" xlink:href="#ak"/><use transform="matrix(0.032552083333333336,0,0,0.032552083333333336,183.56119791666669,0)" xlink:href="#al"/><use transform="matrix(0.032552083333333336,0,0,0.032552083333333336,225.58593750000003,0)" xlink:href="#am"/><use transform="matrix(0.032552083333333336,0,0,0.032552083333333336,243.65234375000003,0)" xlink:href="#an"/><use transform="matrix(0.032552083333333336,0,0,0.032552083333333336,285.15625,0)" xlink:href="#aC"/></g><path fill="#3a414a" d="M750-1118v229H516V0H217v-889H20v-229h197v-86c0-238 156-356 363-356 94 0 178 20 215 31l-54 226c-25-7-61-15-100-15-123-3-131 84-125 200h234" id="aK"/><g id="T"><use transform="matrix(0.032552083333333336,0,0,0.032552083333333336,0,0)" xlink:href="#al"/><use transform="matrix(0.032552083333333336,0,0,0.032552083333333336,42.024739583333336,0)" xlink:href="#am"/><use transform="matrix(0.032552083333333336,0,0,0.032552083333333336,60.091145833333336,0)" xlink:href="#aK"/><use transform="matrix(0.032552083333333336,0,0,0.032552083333333336,83.85416666666667,0)" xlink:href="#aK"/><use transform="matrix(0.032552083333333336,0,0,0.032552083333333336,108.95182291666667,0)" xlink:href="#aq"/><use transform="matrix(0.032552083333333336,0,0,0.032552083333333336,148.66536458333334,0)" xlink:href="#ak"/><use transform="matrix(0.032552083333333336,0,0,0.032552083333333336,174.18619791666669,0)" xlink:href="#aq"/><use transform="matrix(0.032552083333333336,0,0,0.032552083333333336,213.89973958333337,0)" xlink:href="#an"/><use transform="matrix(0.032552083333333336,0,0,0.032552083333333336,255.40364583333337,0)" xlink:href="#ap"/></g><g id="U"><use transform="matrix(0.032552083333333336,0,0,0.032552083333333336,0,0)" xlink:href="#ao"/><use transform="matrix(0.032552083333333336,0,0,0.032552083333333336,38.704427083333336,0)" xlink:href="#ap"/><use transform="matrix(0.032552083333333336,0,0,0.032552083333333336,63.28125,0)" xlink:href="#as"/><use transform="matrix(0.032552083333333336,0,0,0.032552083333333336,81.34765625,0)" xlink:href="#ao"/><use transform="matrix(0.032552083333333336,0,0,0.032552083333333336,120.05208333333334,0)" xlink:href="#at"/><use transform="matrix(0.032552083333333336,0,0,0.032552083333333336,157.38932291666669,0)" xlink:href="#aq"/><use transform="matrix(0.032552083333333336,0,0,0.032552083333333336,197.10286458333337,0)" xlink:href="#at"/></g><g id="V"><use transform="matrix(0.032552083333333336,0,0,0.032552083333333336,0,0)" xlink:href="#ao"/><use transform="matrix(0.032552083333333336,0,0,0.032552083333333336,38.704427083333336,0)" xlink:href="#at"/><use transform="matrix(0.032552083333333336,0,0,0.032552083333333336,76.04166666666667,0)" xlink:href="#at"/><use transform="matrix(0.032552083333333336,0,0,0.032552083333333336,113.37890625,0)" xlink:href="#aj"/><use transform="matrix(0.032552083333333336,0,0,0.032552083333333336,154.26432291666669,0)" xlink:href="#ax"/><use transform="matrix(0.032552083333333336,0,0,0.032552083333333336,193.48958333333337,0)" xlink:href="#am"/><use transform="matrix(0.032552083333333336,0,0,0.032552083333333336,211.55598958333337,0)" xlink:href="#ao"/><use transform="matrix(0.032552083333333336,0,0,0.032552083333333336,250.2604166666667,0)" xlink:href="#ap"/><use transform="matrix(0.032552083333333336,0,0,0.032552083333333336,274.02343750000006,0)" xlink:href="#aq"/><use transform="matrix(0.032552083333333336,0,0,0.032552083333333336,313.73697916666674,0)" xlink:href="#al"/></g><g id="W"><use transform="matrix(0.032552083333333336,0,0,0.032552083333333336,0,0)" xlink:href="#at"/><use transform="matrix(0.032552083333333336,0,0,0.032552083333333336,37.337239583333336,0)" xlink:href="#ap"/><use transform="matrix(0.032552083333333336,0,0,0.032552083333333336,61.751302083333336,0)" xlink:href="#aI"/><use transform="matrix(0.032552083333333336,0,0,0.032552083333333336,103.25520833333334,0)" xlink:href="#al"/><use transform="matrix(0.032552083333333336,0,0,0.032552083333333336,145.27994791666669,0)" xlink:href="#am"/><use transform="matrix(0.032552083333333336,0,0,0.032552083333333336,163.34635416666669,0)" xlink:href="#aq"/><use transform="matrix(0.032552083333333336,0,0,0.032552083333333336,203.05989583333337,0)" xlink:href="#at"/></g><path fill="#3a414a" d="M135 0v-1490h340l471 754c59 97 122 210 187 365-32-387-14-721-19-1119h312V0h-341C855-382 627-689 427-1113c32 420 16 695 20 1113H135" id="aL"/><path fill="#3a414a" d="M135 0v-1490h997v253H440v360h640v249H440v375h694V0H135" id="aM"/><g id="X"><use transform="matrix(0.026041666666666668,0,0,0.026041666666666668,0,0)" xlink:href="#aL"/><use transform="matrix(0.026041666666666668,0,0,0.026041666666666668,40.65104166666667,0)" xlink:href="#am"/><use transform="matrix(0.026041666666666668,0,0,0.026041666666666668,55.10416666666667,0)" xlink:href="#au"/><use transform="matrix(0.026041666666666668,0,0,0.026041666666666668,104.79166666666667,0)" xlink:href="#ar"/><use transform="matrix(0.026041666666666668,0,0,0.026041666666666668,144.609375,0)" xlink:href="#aB"/><use transform="matrix(0.026041666666666668,0,0,0.026041666666666668,179.63541666666669,0)" xlink:href="#aM"/></g><g id="Y"><use transform="matrix(0.026041666666666668,0,0,0.026041666666666668,0,0)" xlink:href="#al"/><use transform="matrix(0.026041666666666668,0,0,0.026041666666666668,33.61979166666667,0)" xlink:href="#ao"/><use transform="matrix(0.026041666666666668,0,0,0.026041666666666668,64.58333333333334,0)" xlink:href="#ap"/><use transform="matrix(0.026041666666666668,0,0,0.026041666666666668,84.37500000000001,0)" xlink:href="#ao"/><use transform="matrix(0.026041666666666668,0,0,0.026041666666666668,115.3385416666667,0)" xlink:href="#aJ"/><use transform="matrix(0.026041666666666668,0,0,0.026041666666666668,149.47916666666669,0)" xlink:href="#ao"/><use transform="matrix(0.026041666666666668,0,0,0.026041666666666668,180.44270833333334,0)" xlink:href="#at"/><use transform="matrix(0.026041666666666668,0,0,0.026041666666666668,210.3125,0)" xlink:href="#aq"/></g><path fill="#3a414a" d="M120 396l69-226c123 42 245 23 254-107l8-60L31-1118h319c87 288 199 559 259 872 72-308 185-583 277-872h315L726 132c-68 181-186 294-410 294-79 0-153-13-196-30" id="aN"/><g id="aa"><use transform="matrix(0.026041666666666668,0,0,0.026041666666666668,0,0)" xlink:href="#aL"/><use transform="matrix(0.026041666666666668,0,0,0.026041666666666668,40.65104166666667,0)" xlink:href="#aq"/><use transform="matrix(0.026041666666666668,0,0,0.026041666666666668,72.421875,0)" xlink:href="#aI"/><use transform="matrix(0.026041666666666668,0,0,0.026041666666666668,105.625,0)" xlink:href="#ak"/><use transform="matrix(0.026041666666666668,0,0,0.026041666666666668,126.04166666666667,0)" xlink:href="#aj"/><use transform="matrix(0.026041666666666668,0,0,0.026041666666666668,158.75,0)" xlink:href="#aD"/><use transform="matrix(0.026041666666666668,0,0,0.026041666666666668,193.671875,0)" xlink:href="#aN"/><use transform="matrix(0.026041666666666668,0,0,0.026041666666666668,225.78125,0)" xlink:href="#an"/><use transform="matrix(0.026041666666666668,0,0,0.026041666666666668,258.984375,0)" xlink:href="#ap"/><use transform="matrix(0.026041666666666668,0,0,0.026041666666666668,278.6458333333333,0)" xlink:href="#ay"/></g><path fill="#3a414a" d="M789 20C394 20 94-260 94-744c0-487 300-766 695-766s695 279 695 766c0 264-89 467-233 597l215 271h-285L1058-29C976 3 886 20 789 20zm-94-532h261l108 139c70-83 110-208 110-371 0-321-154-495-385-495s-385 175-385 495c0 356 184 537 481 482" id="aO"/><g id="ab"><use transform="matrix(0.026041666666666668,0,0,0.026041666666666668,0,0)" xlink:href="#aL"/><use transform="matrix(0.026041666666666668,0,0,0.026041666666666668,40.65104166666667,0)" xlink:href="#aq"/><use transform="matrix(0.026041666666666668,0,0,0.026041666666666668,72.421875,0)" xlink:href="#aI"/><use transform="matrix(0.026041666666666668,0,0,0.026041666666666668,105.625,0)" xlink:href="#ak"/><use transform="matrix(0.026041666666666668,0,0,0.026041666666666668,126.04166666666667,0)" xlink:href="#aj"/><use transform="matrix(0.026041666666666668,0,0,0.026041666666666668,158.75,0)" xlink:href="#aO"/><use transform="matrix(0.026041666666666668,0,0,0.026041666666666668,200.18229166666669,0)" xlink:href="#aI"/><use transform="matrix(0.026041666666666668,0,0,0.026041666666666668,233.38541666666669,0)" xlink:href="#aq"/><use transform="matrix(0.026041666666666668,0,0,0.026041666666666668,265.15625,0)" xlink:href="#ak"/><use transform="matrix(0.026041666666666668,0,0,0.026041666666666668,287.7083333333333,0)" xlink:href="#aN"/></g><g id="ac"><use transform="matrix(0.026041666666666668,0,0,0.026041666666666668,0,0)" xlink:href="#al"/><use transform="matrix(0.026041666666666668,0,0,0.026041666666666668,33.61979166666667,0)" xlink:href="#ao"/><use transform="matrix(0.026041666666666668,0,0,0.026041666666666668,64.58333333333334,0)" xlink:href="#ap"/><use transform="matrix(0.026041666666666668,0,0,0.026041666666666668,84.37500000000001,0)" xlink:href="#ao"/><use transform="matrix(0.026041666666666668,0,0,0.026041666666666668,115.3385416666667,0)" xlink:href="#aJ"/><use transform="matrix(0.026041666666666668,0,0,0.026041666666666668,149.47916666666669,0)" xlink:href="#ao"/><use transform="matrix(0.026041666666666668,0,0,0.026041666666666668,180.44270833333334,0)" xlink:href="#at"/><use transform="matrix(0.026041666666666668,0,0,0.026041666666666668,210.3125,0)" xlink:href="#aq"/></g><g id="ad"><use transform="matrix(0.026041666666666668,0,0,0.026041666666666668,0,0)" xlink:href="#au"/><use transform="matrix(0.026041666666666668,0,0,0.026041666666666668,49.6875,0)" xlink:href="#aq"/><use transform="matrix(0.026041666666666668,0,0,0.026041666666666668,81.45833333333334,0)" xlink:href="#ap"/><use transform="matrix(0.026041666666666668,0,0,0.026041666666666668,101.25000000000001,0)" xlink:href="#ao"/><use transform="matrix(0.026041666666666668,0,0,0.026041666666666668,132.21354166666669,0)" xlink:href="#al"/><use transform="matrix(0.026041666666666668,0,0,0.026041666666666668,165.83333333333337,0)" xlink:href="#ao"/><use transform="matrix(0.026041666666666668,0,0,0.026041666666666668,196.79687500000003,0)" xlink:href="#ap"/><use transform="matrix(0.026041666666666668,0,0,0.026041666666666668,216.58854166666669,0)" xlink:href="#ao"/></g><g id="ae"><use transform="matrix(0.026041666666666668,0,0,0.026041666666666668,0,0)" xlink:href="#aD"/><use transform="matrix(0.026041666666666668,0,0,0.026041666666666668,34.921875,0)" xlink:href="#ap"/><use transform="matrix(0.026041666666666668,0,0,0.026041666666666668,54.453125,0)" xlink:href="#ak"/><use transform="matrix(0.026041666666666668,0,0,0.026041666666666668,76.171875,0)" xlink:href="#aI"/><use transform="matrix(0.026041666666666668,0,0,0.026041666666666668,109.375,0)" xlink:href="#ax"/><use transform="matrix(0.026041666666666668,0,0,0.026041666666666668,140.75520833333334,0)" xlink:href="#ap"/><use transform="matrix(0.026041666666666668,0,0,0.026041666666666668,160.28645833333334,0)" xlink:href="#aI"/><use transform="matrix(0.026041666666666668,0,0,0.026041666666666668,193.48958333333334,0)" xlink:href="#ak"/><use transform="matrix(0.026041666666666668,0,0,0.026041666666666668,213.90625,0)" xlink:href="#aq"/></g><path fill="#3a414a" d="M659 0H135v-1490h529c448 0 721 280 721 744 0 466-273 746-726 746zM440-263h204c287 0 437-148 437-483 0-333-150-481-435-481H440v964" id="aP"/><g id="af"><use transform="matrix(0.026041666666666668,0,0,0.026041666666666668,0,0)" xlink:href="#aP"/><use transform="matrix(0.026041666666666668,0,0,0.026041666666666668,38.515625,0)" xlink:href="#aI"/><use transform="matrix(0.026041666666666668,0,0,0.026041666666666668,71.71875,0)" xlink:href="#av"/><use transform="matrix(0.026041666666666668,0,0,0.026041666666666668,105.33854166666667,0)" xlink:href="#as"/><use transform="matrix(0.026041666666666668,0,0,0.026041666666666668,119.79166666666667,0)" xlink:href="#am"/><use transform="matrix(0.026041666666666668,0,0,0.026041666666666668,134.24479166666669,0)" xlink:href="#ax"/><use transform="matrix(0.026041666666666668,0,0,0.026041666666666668,166.14583333333337,0)" xlink:href="#ao"/><use transform="matrix(0.026041666666666668,0,0,0.026041666666666668,197.10937500000003,0)" xlink:href="#ap"/><use transform="matrix(0.026041666666666668,0,0,0.026041666666666668,216.11979166666669,0)" xlink:href="#aq"/></g><g id="ag"><use transform="matrix(0.026041666666666668,0,0,0.026041666666666668,0,0)" xlink:href="#ai"/><use transform="matrix(0.026041666666666668,0,0,0.026041666666666668,39.453125,0)" xlink:href="#as"/><use transform="matrix(0.026041666666666668,0,0,0.026041666666666668,53.90625,0)" xlink:href="#aq"/><use transform="matrix(0.026041666666666668,0,0,0.026041666666666668,86.19791666666667,0)" xlink:href="#ao"/><use transform="matrix(0.026041666666666668,0,0,0.026041666666666668,117.16145833333334,0)" xlink:href="#an"/><use transform="matrix(0.026041666666666668,0,0,0.026041666666666668,150.36458333333334,0)" xlink:href="#am"/><use transform="matrix(0.026041666666666668,0,0,0.026041666666666668,164.81770833333334,0)" xlink:href="#an"/><use transform="matrix(0.026041666666666668,0,0,0.026041666666666668,198.02083333333334,0)" xlink:href="#aC"/></g><g id="ah"><use transform="matrix(0.026041666666666668,0,0,0.026041666666666668,0,0)" xlink:href="#aD"/><use transform="matrix(0.026041666666666668,0,0,0.026041666666666668,34.921875,0)" xlink:href="#ap"/><use transform="matrix(0.026041666666666668,0,0,0.026041666666666668,54.453125,0)" xlink:href="#aI"/><use transform="matrix(0.026041666666666668,0,0,0.026041666666666668,87.65625,0)" xlink:href="#al"/><use transform="matrix(0.026041666666666668,0,0,0.026041666666666668,121.82291666666667,0)" xlink:href="#aN"/></g></defs></g></svg>
